<svg xmlns="http://www.w3.org/2000/svg" viewBox="0 0 463.05 300.25"><defs><style>.cls-1{isolation:isolate;}.cls-2{fill:#be526d;}.cls-2,.cls-3,.cls-4,.cls-5,.cls-6,.cls-7,.cls-9{stroke:#531a5e;}.cls-10,.cls-13,.cls-2,.cls-4,.cls-5,.cls-6,.cls-7,.cls-9{stroke-linecap:round;}.cls-10,.cls-13,.cls-2,.cls-3,.cls-4,.cls-5,.cls-6,.cls-7,.cls-9{stroke-miterlimit:10;}.cls-2,.cls-3,.cls-4,.cls-5{stroke-width:12px;}.cls-3,.cls-4,.cls-7{fill:#fff;}.cls-5,.cls-8{fill:#e381a2;}.cls-10,.cls-13,.cls-6{fill:none;}.cls-10,.cls-6,.cls-7,.cls-9{stroke-width:8px;}.cls-15,.cls-9{fill:#531a5e;}.cls-10{stroke:#fff;mix-blend-mode:overlay;}.cls-10,.cls-11{opacity:0.5;}.cls-11,.cls-13,.cls-14{mix-blend-mode:multiply;}.cls-12{fill:#be4f71;}.cls-13{stroke:#be4f71;stroke-width:20px;}.cls-13,.cls-14{opacity:0.33;}</style></defs><g class="cls-1"><g id="Layer_2" data-name="Layer 2"><g id="Ham"><path class="cls-2" d="M156.66,16.52c44.7-4.66,161.39-18,217.6,40,.61.64,1.22,1.28,1.82,1.93a102.73,102.73,0,0,1,9.58,12.1c61,97-108,247-234.39,220.67"/><path class="cls-3" d="M156.16,16c-44.81,4.27-155,73.38-150,184.69,8.88,46,47.76,68.71,85.34,80,38.64,11.59,75.89,11.07,77.66,11.33,3.5.5,115-20,123-87s-29-39-37-80S219.16,10,156.16,16Z"/><path class="cls-4" d="M400.66,91.52l15-10c11,26,62,4,32-24,0,0,19-22,1-44-23-21-51,7-37,23-9,9-34,24-32,26"/><path class="cls-5" d="M219.66,118.52c6-30-33-118-132-42s-33,162-23,165c0,0,75,50,142,12,57-32,57-54,57-54C272.66,171.52,213.66,148.52,219.66,118.52Z"/><path class="cls-6" d="M210.32,15.67C322.66,61.52,338.66,134.52,322.66,180.52s-44.25,87.25-44.25,87.25"/><path class="cls-6" d="M264.6,13.32c36.06,18.2,74.06,60.2,74.06,60.2s36.89,39,18.45,79.52-4.26,60-4.26,60"/><path class="cls-6" d="M350.87,38.1c25.79,44.42,35.62,48.76,34.7,75.09s-6,64.43-6,64.43"/><ellipse class="cls-7" cx="95.66" cy="196.02" rx="23.5" ry="29" transform="translate(-114.81 253.25) rotate(-79.2)"/><ellipse class="cls-8" cx="94.65" cy="196.07" rx="12.77" ry="15.76" transform="translate(-115.69 252.3) rotate(-79.2)"/><circle class="cls-9" cx="97.16" cy="133.02" r="9.5"/><circle class="cls-9" cx="177.16" cy="133.02" r="9.5"/><path class="cls-6" d="M119.66,153.52c8,8,26.5,6.5,33,0"/><path class="cls-10" d="M106.66,76.27c19,8.25,15,46.25,15,46.25"/><path class="cls-10" d="M212.32,240c48.65-87.49-81.66-53.52-81.66-53.52"/><g class="cls-11"><path class="cls-12" d="M218.53,275c-4.94,9.3,3.83,17,12.81,15,3.94-.88,7.82-2.82,11.47-4.44a293.68,293.68,0,0,0,37.25-20.39c36.69-23.16,71.08-52.37,95.05-88.88,14.68-22.37,24.38-47.57,26.81-74.29.49-5.39-4.95-10-10-10-5.82,0-9.51,4.6-10,10a130.38,130.38,0,0,1-6.26,28.6,142.16,142.16,0,0,1-12.44,26.9c-10.32,17.74-22.72,32.52-37.57,47a338.27,338.27,0,0,1-81.93,58.52q-4.08,2.1-8.26,4.06c-1.12.52-2.26,1-3.39,1.53-1.51.69-.6.24.57-.22-.5.19-1,.41-1.49.61-1.47.57-3,1-4.44,1.58a7.45,7.45,0,0,0-1.33.31s3.2-.31,2.12-.32a8.36,8.36,0,0,1,3.59.82c2.43.71,3.57,2.71,3.4,6q3.87,3.9,1.31,7.77c6-11.36-11.23-21.47-17.27-10.09Z"/></g><path class="cls-13" d="M151.66,49.52c-225,58-71,334,109,147"/><g class="cls-14"><path class="cls-15" d="M407.17,87.8A58,58,0,0,1,417.33,79l-14.69-6c1.66,12.28,12.32,22.06,24.3,24.15,6.07,1.06,13.35,1,19-1.89s8.46-9,11.7-14.11c6.9-10.91-10.4-21-17.27-10.1-1.05,1.67-3.07,6.09-4.31,7,1.72-1.27-.75-.35-1.5-.29a15.26,15.26,0,0,1-3.88-.2c-5.38-1-8-4.77-8.71-9.88-.85-6.27-9.84-9.23-14.69-6A80.77,80.77,0,0,0,393,73.66c-8.78,9.4,5.34,23.57,14.14,14.14Z"/></g><g class="cls-14"><path class="cls-15" d="M443.46,27.82a32.34,32.34,0,0,1-6.08,12.8c-3.06,4.26-.88,11.32,3.59,13.68,5.17,2.74,10.41,1,13.68-3.58a52.26,52.26,0,0,0,8.09-17.59c1.29-5.06-1.65-11.08-7-12.3s-10.92,1.56-12.3,7Z"/></g></g></g></g></svg>