<svg xmlns="http://www.w3.org/2000/svg" viewBox="0 0 293.36 276.66"><defs><style>.cls-1{isolation:isolate;}.cls-13,.cls-2{fill:#edc3c3;}.cls-10,.cls-11,.cls-14,.cls-15,.cls-2,.cls-9{stroke:#531a5e;}.cls-10,.cls-11,.cls-14,.cls-15,.cls-2,.cls-7,.cls-9{stroke-linecap:round;stroke-linejoin:round;}.cls-10,.cls-2,.cls-7{stroke-width:10px;}.cls-12,.cls-3{opacity:0.33;mix-blend-mode:multiply;}.cls-12,.cls-4{fill:#cd6484;}.cls-5,.cls-7{opacity:0.5;}.cls-6{fill:#fff;}.cls-10,.cls-11,.cls-7{fill:none;}.cls-7{stroke:#fff;}.cls-8,.cls-9{fill:#e381a2;}.cls-14,.cls-9{stroke-width:8px;}.cls-11{stroke-width:12px;}.cls-14,.cls-15{fill:#bd4b6e;}.cls-15{stroke-width:5px;}</style></defs><g class="cls-1"><g id="Layer_2" data-name="Layer 2"><g id="Master_Pig" data-name="Master Pig"><g id="Face"><path id="Face_Base" data-name="Face Base" class="cls-2" d="M34.72,116.3c13-138.5,216.75-158.25,224.25.75,50.25,59.75-2,116-23,122.5-32,37.5-128.5,45.5-170.5,6C29.22,238.8-15.78,159.8,34.72,116.3Z"/><g class="cls-3"><path class="cls-4" d="M67.08,37.25C48.69,61.29,33.87,89,33.41,119.9l1.37-5a24.79,24.79,0,0,1-2.47,4.1c1.65-1.75-1.8,1-2.3,1.46a52.13,52.13,0,0,0-3.82,4.18,69.37,69.37,0,0,0-11.33,19.73c-5.2,13.7-5.69,29.39-2.19,43.55,1.55,6.28,2.84,12.21,5.63,18.12a70.61,70.61,0,0,0,10,15.12c6.94,8.29,15.7,15.17,24.78,21a108.55,108.55,0,0,0,15.31,8.35l-4.6-6c3.42,10.23,14.3,14.87,23.54,18.6a185,185,0,0,0,30.16,9c11.78,2.56,23.62,2.76,35.64,2.08,18-1,36.26-4.23,53.07-11,8.8-3.52,17.42-7.93,24.1-14.82,1.67-1.73,3-3.68,4.55-5.54-1.1,1.36.17-.18.61-.67l4.39-4.86-4.41,2.57c14.23-4.63,26.61-13.67,34.35-26.6,7.58-12.66,12.68-27.14,12.89-41.94.17-12.87-19.82-12.88-20,0-.26,18.21-10.12,38.43-26.69,46.9-3.59,1.84-7.69,2.43-10.64,5.32-1.79,1.75-3.46,3.74-5.08,5.64-5.65,6.62-11,11.14-19.13,14.61-19.87,8.45-42.21,11-63.63,10.63-2.44-.05-4.9-.27-7.34-.27-2.06,0,.58.15.41.1-2.11-.54-4.36-.75-6.5-1.2-6-1.26-11.92-2.78-17.78-4.53a123,123,0,0,1-16.87-6.18c-1.11-.54-2.21-1.11-3.28-1.73-.48-.28-3.26-2.11-2.42-1.47s-1.18-1.14-1.56-1.53c1.72,1.79.78,1.2.52.61s-.34-.63.07.24q1,2.26-.69-1.67c-1.85-3.17-4.77-4.06-7.78-5.59a124.37,124.37,0,0,1-11.9-6.86c-10-6.52-19.65-14.76-25.56-25.81-3.08-5.76-4.86-13.74-5.93-20.88a55.25,55.25,0,0,1,1.63-23.23c2.61-9.06,7.52-15.79,14.22-22.23A26.9,26.9,0,0,0,52.05,125c2.54-5,1.39-11.85,2.37-17.36,4-22.57,16.2-42.3,29.93-60.24,3.29-4.29.67-11.2-3.59-13.68-5.15-3-10.39-.72-13.68,3.58Z"/></g><g class="cls-5"><path class="cls-6" d="M108.78,31.29c25-10.27,52.5-13.56,78.19-3.65,17.51,6.75,33.38,19.53,43.15,35.64,3.5,5.76,6.72,12.91,6.72,18.91,0,6.43,10,6.44,10,0,0-16.2-12.12-32-23.21-42.66a101,101,0,0,0-65-27.91c-18-.85-35.94,3.21-52.54,10-5.87,2.4-3.3,12.08,2.66,9.64Z"/></g><path class="cls-7" d="M248.41,128.35c9.81,4.45,14.31,23.36,14.31,23.36"/></g><g id="Cheek_Apple" data-name="Cheek Apple"><circle id="Apple_Right" data-name="Apple Right" class="cls-8" cx="226.72" cy="165.3" r="18.5"/><circle id="Apple_Left" data-name="Apple Left" class="cls-8" cx="60.72" cy="165.3" r="18.5"/></g><g id="Snout"><ellipse id="Nostril_Right" data-name="Nostril Right" class="cls-9" cx="171.97" cy="165.55" rx="9.25" ry="5.25" transform="translate(-54.56 90.27) rotate(-25.53)"/><ellipse id="Nostril_Left" data-name="Nostril Left" class="cls-9" cx="119.47" cy="165.55" rx="5.25" ry="9.25" transform="translate(-83.64 186.24) rotate(-60)"/><path id="Snout_Circle" data-name="Snout Circle" class="cls-10" d="M90.22,162.3c-2-17,25.5-31,57.5-30.5,47.5,2,51,22,52,28.5.5,10.5-11.5,33.5-52,30C101.22,192.3,91.22,177.8,90.22,162.3Z"/><g class="cls-3"><path class="cls-4" d="M109.06,201.94c12.66,5.12,26.54,7.29,40.16,7.54,12.61.24,24.56-2.13,34.57-10.11,4.22-3.37,3.51-10.62,0-14.14-4.18-4.18-9.91-3.38-14.15,0-6.14,4.89-16.06,4.5-23.4,4.16a96.76,96.76,0,0,1-31.87-6.73c-5-2-11,2.2-12.3,7-1.57,5.72,2,10.27,7,12.3Z"/></g><g class="cls-3"><path class="cls-4" d="M90.07,147.33a37.85,37.85,0,0,0-1.52,20.92,25.06,25.06,0,0,0,7.58,13.88c5.87,5.62,15.16,7.47,22.89,8.75,17.6,2.93,36.51,4.24,54.28,2.07,6.07-.74,12.09-2.33,17.21-5.85,6.93-4.78,10.23-11.36,12.85-19.14,4.12-12.23-15.19-17.47-19.29-5.32-1.82,5.41-3.38,8.2-9.6,9.89-.66.18-1.34.31-2,.49-2.52.7,1.87-.11-.07,0-1.68.13-3.34.32-5,.42a223.4,223.4,0,0,1-28.46-.32c-9.62-.66-16.73-1.1-26.13-4.26-.61-.2-3.55-1.61-1-.32a9.89,9.89,0,0,0-1.71-.88c-.33-.19-.66-.4-1-.62q1.93,1.56.81.57c-1.14-1.43,1.33,2,.45.6-3.22-5-3.25-9.75-1-15.6,1.94-5.05-2.14-11-7-12.31-5.64-1.55-10.36,1.93-12.3,7Z"/></g><g class="cls-3"><path class="cls-4" d="M193.21,124.5c-15.66-6.91-32.84-8.19-49.78-8.73A90.71,90.71,0,0,0,94,128.44c-11,6.57-1,23.87,10.09,17.27a71.2,71.2,0,0,1,39.37-9.94c13,.41,27.58.66,39.69,6,4.93,2.18,10.74,1.45,13.68-3.58,2.48-4.26,1.38-11.49-3.59-13.69Z"/></g><path class="cls-7" d="M116.22,149.8c27-13,58,0,58,0"/></g><g id="Dead_Eyes" data-name="Dead Eyes"><g id="Dead_Eye_Left" data-name="Dead Eye Left"><line class="cls-11" x1="71.29" y1="119.52" x2="100.02" y2="142.88"/><line class="cls-11" x1="100.17" y1="119.71" x2="71.14" y2="142.69"/></g><g id="Dead_Eye_RIght" data-name="Dead Eye RIght"><line class="cls-11" x1="220.82" y1="118.57" x2="190.5" y2="139.83"/><line class="cls-11" x1="191.99" y1="116.71" x2="219.32" y2="141.7"/></g><path class="cls-12" d="M111.81,128.2a188.82,188.82,0,0,0-30.91-.92c-4.31.15-9.24-.22-13.3,1.43-4.38,1.79-8.18,5.56-11.91,8.39-5.06,3.84-.08,12.53,5.05,8.64,3.15-2.4,6.5-5.92,10.12-7.56,3.81-1.71,9.68-.91,13.8-1a173.4,173.4,0,0,1,27.15,1C118.18,139,118.12,129,111.81,128.2Z"/><path class="cls-12" d="M225.11,129.87c-14-4.37-27.48-11-41.92-4.42-5.84,2.66-.77,11.29,5.05,8.63,11-5,23.71,2.15,34.21,5.43C228.61,141.43,231.24,131.78,225.11,129.87Z"/></g><g id="Ears_Flop" data-name="Ears Flop"><g id="Flop_Ear_Left" data-name="Flop Ear Left"><path class="cls-13" d="M19.22,93.8c0,2.24,1.87,10,7,12s9-5.48,9-11c0-8-3.48-9-9-9S19.22,90.8,19.22,93.8Z"/><path class="cls-2" d="M5.16,60.83C1.51,27.41,59.65,7.14,76.66,12.52c17.7,3.26,17.7,16.41,17.7,16.41S78.18,75.3,77.22,83.8c-4,10.5-32,4-46.77-.55-3.28-1.13-7.57-1.94-11.7-3.75C12.65,76.84,6.88,72,5.16,60.83Z"/><path class="cls-2" d="M15.12,77.58c7.1,23.22,19,36.43,19,36.43"/></g><g id="Flop_Ear_Right" data-name="Flop Ear Right"><path class="cls-13" d="M275.22,93.8c0,2.24-1.88,10-7,12s-9-5.48-9-11c0-8,3.47-9,9-9S275.22,90.8,275.22,93.8Z"/><path class="cls-2" d="M288.19,61.83c3.65-33.42-54.48-53.69-71.5-48.31C199,16.78,199,29.93,199,29.93S215.18,76.3,216.14,84.8c4,10.5,32,4,46.77-.55,3.28-1.13,7.56-1.94,11.7-3.75C280.71,77.84,286.47,73,288.19,61.83Z"/><path class="cls-2" d="M259.2,115s11.94-13.21,19-36.43"/></g><g id="Flop_Shadow" data-name="Flop Shadow"><g class="cls-3"><path class="cls-4" d="M182.15,22.44C184,46.1,192.67,67.27,201.56,89c2.05,5,6.65,8.53,12.3,7,4.73-1.3,9-7.27,7-12.3-8.1-19.8-17-39.67-18.7-61.25-.43-5.39-4.29-10-10-10-5.08,0-10.43,4.58-10,10Z"/></g><g class="cls-3"><path class="cls-4" d="M15.41,26.81C5.36,40-.34,65.55,13.78,78.19c6.78,6.07,18.08,8.39,26.63,10.8,9.64,2.72,19.7,4.42,29.74,3.83,12.79-.74,12.87-20.75,0-20a67.62,67.62,0,0,1-20.86-2.16C42.51,69,34.89,67.13,28.57,64.1c-3.77-1.81-3.24-7.7-2.82-11.27.71-6,3.32-11.18,6.93-15.93,3.27-4.3.68-11.19-3.59-13.68-5.13-3-10.4-.73-13.68,3.59Z"/></g><g class="cls-3"><path class="cls-4" d="M196.94,23.52c.15,10.71,3.5,21,6.46,31.16Q208,70.4,213,86c3.9,12.22,23.21,7,19.29-5.31q-4.68-14.69-9-29.47c-2.62-9-6.15-18.26-6.28-27.69-.17-12.86-20.17-12.89-20,0Z"/></g><g class="cls-3"><path class="cls-4" d="M18.75,96.26c1.08.53,2.15,1.07,3.18,1.7.5.32,1,.64,1.49,1-1.11-.88-.23.08.33.51,1,.74-.48-1.08,0,0,.09.2.89,1.77.43.62-.62-1.56.54,1.54,0-.18-.36-1.12,0,.65-.06,1.09-.3,5.23,4.81,10.23,10,10a10.22,10.22,0,0,0,10-10c.57-10-6.81-17.87-15.25-22-4.7-2.28-11-1.44-13.68,3.59-2.37,4.48-1.44,11.24,3.59,13.68Z"/></g><g class="cls-3"><path class="cls-4" d="M70.23,82.83c-12.86,3.82-27.39-1.54-40-4.29-7.4-1.61-14.31,4.65-12.3,12.3a32.13,32.13,0,0,0,8.73,15c9.22,9,23.37-5.13,14.14-14.14a12.36,12.36,0,0,1-3.59-6.19l-12.3,12.3c16.4,3.57,34,9.24,50.65,4.28,12.31-3.66,7.07-23-5.31-19.28Z"/></g><g class="cls-3"><path class="cls-4" d="M258.4,81.57c-3.36,2.9-6.6,6.5-7.72,10.93a16.35,16.35,0,0,0,3.63,15.16c3.38,4,10.71,3.74,14.15,0,3.92-4.28,3.6-9.85,0-14.14,1.27,1.51,1.91,2.94,1.36,4.93.52-1.9-1.32,1.9,0-.16s-1.33,1.07.4-.44c.8-.7,1.55-1.45,2.35-2.14,4-3.43,3.78-10.67,0-14.14-4.23-3.89-9.9-3.66-14.14,0Z"/></g><g class="cls-3"><path class="cls-4" d="M255.72,88.3c.15-3,.3-1.65,0-.74,1-2.83.51-1.27.09-.55-.6,1-1.27,2-1.82,3.11a20.23,20.23,0,0,0-1.85,13.42c.88,5.17,7.52,8.53,12.3,7,5.58-1.8,7.93-6.76,7-12.3.13,1.39.19,1.71.17,1s-.05-.43-.21,1.11a6.42,6.42,0,0,1,.23-.86c.24-.73.07-.38-.49,1a13.72,13.72,0,0,0,1.53-2.67,19.87,19.87,0,0,0,3.09-9.5c.27-5.23-4.8-10.23-10-10a10.22,10.22,0,0,0-10,10Z"/></g></g><path class="cls-7" d="M236.22,26.8c28,3,39,23,39,23"/><path class="cls-7" d="M53.58,26.88c10.64-4.08,25.64,0,25.64,0"/></g><g id="Mouth_Dead" data-name="Mouth Dead"><path class="cls-14" d="M143.25,200.33c-7,26.47,22.41,22.47,22.41,22.47s20.77.38,12.69-21.28c0,0-29.16-12.8-48.38,8"/><path class="cls-15" d="M155.9,197.63c10.32,5.17,3.32,15.17,3.32,15.17"/></g></g></g></g></svg>