<svg xmlns="http://www.w3.org/2000/svg" viewBox="0 0 313.51 296.53"><defs><style>.cls-1{isolation:isolate;}.cls-2,.cls-3,.cls-7{fill:#edc3c3;}.cls-11,.cls-12,.cls-13,.cls-14,.cls-15,.cls-2,.cls-3,.cls-7{stroke:#531a5e;}.cls-11,.cls-12,.cls-13,.cls-14,.cls-15,.cls-2,.cls-3,.cls-6,.cls-7{stroke-linecap:round;stroke-linejoin:round;}.cls-15,.cls-2{stroke-width:12px;}.cls-11,.cls-13,.cls-14,.cls-3{stroke-width:8px;}.cls-4{opacity:0.33;mix-blend-mode:multiply;}.cls-5{fill:#cd6484;}.cls-12,.cls-13,.cls-15,.cls-6{fill:none;}.cls-6{stroke:#fff;}.cls-12,.cls-6,.cls-7{stroke-width:10px;}.cls-6,.cls-8{opacity:0.5;}.cls-9{fill:#fff;}.cls-10,.cls-11{fill:#e381a2;}.cls-14{fill:#531a5e;}</style></defs><g class="cls-1"><g id="Layer_2" data-name="Layer 2"><g id="Master_Pig" data-name="Master Pig"><g id="Ears_Point_Lower" data-name="Ears Point Lower"><g id="Ear_Left" data-name="Ear Left"><path id="Ear_Outer_Left" data-name="Ear Outer Left" class="cls-2" d="M38,131.16c-20.5-3-32.5-31.5-32-59.5s6.29-47.22,9-53,10-11,12-11,30.5-12.5,74,31"/><path class="cls-3" d="M32,45.66c18,11.5,17.59,41.27,16,51"/></g><g id="Ear_Right" data-name="Ear Right"><path id="Ear_Outer_Right" data-name="Ear Outer Right" class="cls-2" d="M261,134.66c26,0,47-35,46.48-63s-6.3-47.22-9-53-10-11-12-11-31-10.5-74.48,33"/><path class="cls-3" d="M266.52,55.16c-21,13-9.5,47.5-9.5,47.5"/></g><g id="Ear_Point_Shadow" data-name="Ear Point Shadow"><g class="cls-4"><path class="cls-5" d="M25.88,59.21a30.07,30.07,0,0,1,5.5,15.33c.29,3,.48,6,.8,9.06.21,2,.46,3.9.74,5.83.11.82.24,1.63.38,2.44.23,2,.35,2.21.38.75-1.95,5,2.15,11,7,12.3C46.32,106.47,51,103,53,97.93c1.73-4.47-.12-9-.71-13.54-.49-3.76-.61-7.55-1-11.31-1-8.67-3-16.75-8.09-24-3.13-4.4-8.72-6.49-13.68-3.59-4.35,2.54-6.74,9.26-3.59,13.68Z"/></g><g class="cls-4"><path class="cls-5" d="M258.32,53.45c-4.3,7.54-6.08,15.26-6.69,23.86-.56,8-1.47,16-.92,24,.36,5.39,4.33,10,10,10,5.12,0,10.36-4.58,10-10-.46-6.77.23-13.55.68-20.31.42-6.37,1-11.86,4.2-17.49,6.39-11.19-10.88-21.28-17.27-10.09Z"/></g><g class="cls-4"><path class="cls-5" d="M17.15,12.26a158.82,158.82,0,0,0-6.64,28.81C9,51.2,7.23,61.47,7.08,71.73A108.16,108.16,0,0,0,21.7,127c6.42,11.15,23.71,1.09,17.27-10.1A87.86,87.86,0,0,1,27.12,70c.57-17.36,3.6-36,9.32-52.43,1.78-5.1-2-10.94-7-12.3-5.5-1.51-10.51,1.87-12.3,7Z"/></g><g class="cls-4"><path class="cls-5" d="M261.44,4.09c-5.39,6.13-13.21,8.68-20.38,12.15-8.9,4.32-15.47,10.88-22.58,17.58-9.38,8.85,4.79,23,14.15,14.14,3.35-3.16,6.46-6.71,10.11-9.55a54.85,54.85,0,0,1,11-6.13c8-3.67,15.87-7.31,21.81-14,3.56-4.06,4-10.16,0-14.15C272,.46,265,0,261.44,4.09Z"/></g></g><path class="cls-6" d="M44,18.66c28.14,1.75,37,20,37,20"/><path class="cls-6" d="M283.93,21.62c12.09,15,10.09,53,10.09,53"/></g><g id="Face"><path id="Face_Base" data-name="Face Base" class="cls-7" d="M38.52,136.16c13-138.5,216.75-158.25,224.25.75,50.25,59.75-2,116-23,122.5-32,37.5-128.5,45.5-170.5,6C33,258.66-12,179.66,38.52,136.16Z"/><g class="cls-4"><path class="cls-5" d="M70.88,57.12c-18.4,24-33.22,51.7-33.67,82.65l1.37-5.05a24.38,24.38,0,0,1-2.47,4.1c1.65-1.75-1.8,1-2.3,1.46A52.27,52.27,0,0,0,30,144.47,69.23,69.23,0,0,0,18.66,164.2c-5.21,13.7-5.69,29.38-2.19,43.55C18,214,19.31,220,22.1,225.86a70.37,70.37,0,0,0,10,15.12c6.94,8.29,15.7,15.17,24.78,21a106.56,106.56,0,0,0,15.31,8.35l-4.6-6c3.42,10.23,14.3,14.87,23.54,18.6a186,186,0,0,0,30.16,9C133.11,294.47,145,294.66,157,294c18-1,36.26-4.22,53.07-11,8.8-3.53,17.42-7.94,24.1-14.83,1.67-1.73,3.05-3.67,4.55-5.54-1.1,1.36.17-.18.61-.66,1.46-1.62,2.92-3.25,4.39-4.87l-4.41,2.57c14.23-4.62,26.61-13.66,34.35-26.6,7.58-12.66,12.68-27.13,12.89-41.94.17-12.87-19.83-12.88-20,0-.26,18.22-10.12,38.43-26.7,46.9-3.59,1.84-7.68,2.43-10.64,5.33-1.78,1.75-3.45,3.73-5.08,5.63-5.64,6.62-11,11.14-19.12,14.62-19.87,8.45-42.21,11-63.63,10.62-2.44-.05-4.9-.27-7.34-.26-2.06,0,.58.14.4.1-2.1-.55-4.35-.76-6.49-1.21-6-1.25-11.92-2.78-17.78-4.53a123.09,123.09,0,0,1-16.87-6.17c-1.11-.55-2.21-1.12-3.28-1.74-.48-.27-3.26-2.11-2.42-1.47s-1.18-1.14-1.56-1.53c1.72,1.8.78,1.2.52.61s-.34-.63.07.24c.66,1.51.44.95-.69-1.67-1.85-3.17-4.77-4.06-7.78-5.58a128.77,128.77,0,0,1-11.9-6.86c-10-6.52-19.65-14.77-25.57-25.82-3.07-5.75-4.85-13.74-5.92-20.87a55.3,55.3,0,0,1,1.63-23.24c2.61-9,7.52-15.79,14.22-22.23a27.12,27.12,0,0,0,5.26-7.22c2.54-5,1.39-11.84,2.37-17.36,4-22.57,16.2-42.29,29.93-60.24,3.28-4.29.67-11.19-3.59-13.68-5.15-3-10.39-.72-13.68,3.59Z"/></g><g class="cls-8"><path class="cls-9" d="M112.58,51.15c25-10.27,52.5-13.56,78.18-3.65,17.52,6.76,33.39,19.54,43.16,35.64,3.5,5.77,6.72,12.91,6.72,18.91,0,6.43,10,6.44,10,0,0-16.2-12.12-32-23.21-42.66a101,101,0,0,0-65-27.91c-18-.85-35.94,3.22-52.54,10-5.87,2.41-3.3,12.09,2.66,9.64Z"/></g><path class="cls-6" d="M252.21,148.21c9.81,4.45,14.31,23.37,14.31,23.37"/></g><g id="Cheek_Apple" data-name="Cheek Apple"><circle id="Apple_Right" data-name="Apple Right" class="cls-10" cx="230.52" cy="185.16" r="18.5"/><circle id="Apple_Left" data-name="Apple Left" class="cls-10" cx="64.52" cy="185.16" r="18.5"/></g><g id="Snout"><ellipse id="Nostril_Right" data-name="Nostril Right" class="cls-11" cx="175.77" cy="185.41" rx="9.25" ry="5.25" transform="translate(-62.74 93.84) rotate(-25.53)"/><ellipse id="Nostril_Left" data-name="Nostril Left" class="cls-11" cx="123.27" cy="185.41" rx="5.25" ry="9.25" transform="translate(-98.94 199.46) rotate(-60)"/><path id="Snout_Circle" data-name="Snout Circle" class="cls-12" d="M94,182.16c-2-17,25.5-31,57.5-30.5,47.5,2,51,22,52,28.5.5,10.5-11.5,33.5-52,30C105,212.16,95,197.66,94,182.16Z"/><path id="Mouth" class="cls-13" d="M134,219.66c15,12.5,32,0,32,0"/><g class="cls-4"><path class="cls-5" d="M112.86,221.81c12.66,5.11,26.54,7.29,40.16,7.54,12.61.23,24.56-2.14,34.57-10.11,4.22-3.37,3.51-10.63,0-14.15-4.18-4.17-9.91-3.37-14.15,0-6.14,4.9-16.06,4.5-23.4,4.16a96.5,96.5,0,0,1-31.87-6.73c-5-2-11,2.21-12.3,7-1.57,5.71,2,10.27,7,12.3Z"/></g><g class="cls-4"><path class="cls-5" d="M93.87,167.19a37.86,37.86,0,0,0-1.52,20.92A25.12,25.12,0,0,0,99.93,202c5.87,5.62,15.16,7.46,22.89,8.74,17.6,2.93,36.51,4.24,54.28,2.07,6.07-.74,12.09-2.33,17.21-5.85,6.93-4.77,10.23-11.35,12.85-19.14,4.12-12.22-15.19-17.47-19.29-5.31-1.82,5.4-3.38,8.2-9.61,9.89-.65.18-1.33.3-2,.48-2.53.7,1.87-.1-.08,0-1.67.13-3.33.32-5,.42a221.57,221.57,0,0,1-28.46-.31c-9.62-.66-16.73-1.1-26.13-4.26-.61-.21-3.55-1.61-1-.32a9.23,9.23,0,0,0-1.71-.88c-.33-.2-.66-.41-1-.63,1.29,1.05,1.56,1.24.81.58-1.14-1.44,1.33,2,.45.6-3.22-5-3.25-9.75-1-15.61,1.94-5-2.14-11-7-12.3-5.64-1.55-10.36,1.92-12.3,7Z"/></g><g class="cls-4"><path class="cls-5" d="M197,144.37c-15.66-6.91-32.84-8.19-49.78-8.74a90.72,90.72,0,0,0-49.46,12.68c-11.06,6.57-1,23.86,10.09,17.27a71.11,71.11,0,0,1,39.37-10c13,.42,27.58.67,39.68,6,4.94,2.18,10.74,1.44,13.69-3.59,2.48-4.25,1.38-11.49-3.59-13.68Z"/></g><path class="cls-6" d="M120,169.66c27-13,58,0,58,0"/></g><g id="Eyes"><circle id="Eye_Left" data-name="Eye Left" class="cls-14" cx="89.02" cy="151.16" r="11.5"/><circle id="Eye_Right" data-name="Eye Right" class="cls-14" cx="209.02" cy="151.16" r="11.5"/><path id="Eye_Cheek_Right" data-name="Eye Cheek Right" class="cls-15" d="M53.52,165.16c5.5-9.5,34.5-17,46-3.5"/><g id="Eye_Cheek_Left" data-name="Eye Cheek Left"><path class="cls-15" d="M238.32,162.66c-5.5-9.5-32.8-14-44.3-.51"/></g></g></g></g></g></svg>