<?xml version="1.0" standalone="no"?>
<!DOCTYPE svg PUBLIC "-//W3C//DTD SVG 20010904//EN"
 "http://www.w3.org/TR/2001/REC-SVG-20010904/DTD/svg10.dtd">
<svg version="1.0" xmlns="http://www.w3.org/2000/svg"
 width="628.000000pt" height="628.000000pt" viewBox="0 0 628.000000 628.000000"
 preserveAspectRatio="xMidYMid meet">
<metadata>
Created by potrace 1.11, written by Peter Selinger 2001-2013
</metadata>
<g transform="translate(0.000000,628.000000) scale(0.100000,-0.100000)"
fill="#000000" stroke="none">
<path d="M610 6094 c-30 -7 -70 -15 -89 -19 -58 -9 -133 -57 -213 -136 -104
-102 -149 -195 -208 -439 -10 -41 -18 -77 -18 -80 0 -3 -1 -8 -2 -12 -3 -9 -4
-13 -13 -53 -4 -16 -9 -48 -12 -70 -4 -22 -7 -49 -9 -60 -2 -11 -7 -47 -11
-80 -4 -33 -9 -68 -11 -78 -17 -95 -25 -570 -11 -667 22 -144 22 -144 52 -262
14 -54 39 -134 56 -176 27 -69 106 -229 119 -242 3 -3 24 -30 46 -60 86 -113
173 -188 279 -241 l65 -32 -47 -51 c-104 -112 -152 -181 -220 -315 -34 -69
-84 -199 -98 -256 -1 -5 -5 -21 -8 -35 -24 -93 -32 -177 -32 -340 1 -187 10
-268 51 -423 9 -34 17 -69 19 -77 22 -100 152 -387 226 -498 16 -24 29 -47 29
-53 0 -5 4 -9 8 -9 5 0 15 -12 23 -27 54 -106 307 -367 440 -455 91 -59 183
-105 268 -133 34 -11 82 -40 128 -77 70 -57 283 -194 283 -182 0 3 13 -4 29
-15 16 -12 32 -21 35 -21 3 0 29 -11 58 -24 29 -13 80 -34 113 -46 33 -12 74
-27 90 -33 17 -6 35 -13 40 -14 6 -1 57 -15 115 -29 58 -15 112 -29 120 -32
23 -8 41 -11 82 -16 20 -2 40 -6 45 -9 4 -2 35 -7 68 -11 33 -3 71 -8 85 -11
70 -14 199 -20 415 -19 249 0 323 5 550 38 51 7 96 16 115 21 8 2 31 7 50 10
103 17 408 109 472 141 15 8 30 14 33 15 7 0 85 34 146 63 153 75 314 184 430
293 42 40 94 81 115 91 43 19 136 73 144 82 3 3 32 27 65 52 189 144 390 394
501 624 52 109 97 224 86 224 -4 0 -2 4 4 8 11 7 38 106 50 179 3 21 8 41 10
45 16 26 24 380 10 438 -4 14 -9 41 -11 60 -9 61 -13 84 -28 140 -19 71 -59
181 -88 245 -12 28 -22 53 -21 57 1 3 -5 12 -13 18 -8 7 -15 18 -15 24 0 7
-20 45 -45 85 -25 40 -45 77 -45 82 0 5 -4 9 -10 9 -5 0 -10 6 -10 14 0 8 -4
16 -8 18 -4 2 -18 17 -30 35 -21 30 -22 33 -5 41 10 6 22 10 26 10 17 0 75 28
147 70 118 69 223 164 318 287 25 33 49 62 52 65 15 14 140 240 140 254 0 7 4
16 9 22 10 11 69 165 75 196 3 13 5 23 6 23 1 0 3 7 5 15 2 8 10 44 19 80 26
109 31 168 30 350 0 177 -10 326 -30 448 -3 17 -7 49 -10 69 -8 62 -16 108
-59 307 -14 62 -71 229 -96 279 -35 69 -152 191 -222 232 -75 43 -170 60 -332
59 -96 0 -210 -10 -225 -19 -3 -2 -17 -6 -31 -9 -13 -3 -35 -8 -49 -11 -14 -3
-29 -7 -35 -9 -5 -1 -41 -13 -80 -26 -38 -13 -73 -23 -77 -22 -5 1 -8 -3 -8
-8 0 -6 -4 -10 -9 -10 -5 0 -20 -4 -33 -9 -13 -5 -27 -10 -33 -11 -5 -1 -22
-11 -37 -21 -14 -10 -29 -19 -33 -19 -10 0 -170 -94 -173 -102 -2 -4 -8 -8
-13 -8 -11 0 -200 -134 -235 -167 -14 -13 -27 -23 -29 -23 -5 0 -70 -57 -163
-144 l-32 -30 -97 47 c-54 25 -118 54 -143 65 -66 28 -290 95 -355 106 -16 3
-41 7 -55 10 -13 3 -42 8 -65 12 -38 6 -56 8 -170 19 -57 6 -272 6 -355 0
-100 -6 -177 -16 -275 -35 -27 -5 -61 -11 -75 -14 -14 -2 -61 -14 -105 -26
-44 -12 -93 -25 -110 -30 -16 -4 -53 -16 -82 -28 -29 -11 -54 -17 -57 -14 -4
3 -6 0 -6 -6 0 -7 -6 -12 -14 -12 -8 0 -27 -5 -43 -12 -15 -6 -31 -11 -35 -10
-5 1 -8 -3 -8 -8 0 -6 -5 -10 -10 -10 -6 0 -30 -9 -55 -21 l-45 -21 -42 40
c-59 56 -88 81 -137 122 -23 19 -52 43 -64 53 -12 10 -32 27 -44 37 -60 52
-262 178 -373 234 -110 55 -244 108 -305 121 -11 2 -38 9 -60 14 -93 23 -143
29 -258 29 -67 -1 -147 -7 -177 -14z"/>
</g>
</svg>
